<?xml version="1.0" encoding="UTF-8" standalone="no"?>
<svg
   xmlns:dc="http://purl.org/dc/elements/1.1/"
   xmlns:cc="http://creativecommons.org/ns#"
   xmlns:rdf="http://www.w3.org/1999/02/22-rdf-syntax-ns#"
   xmlns:svg="http://www.w3.org/2000/svg"
   xmlns="http://www.w3.org/2000/svg"
   xmlns:sodipodi="http://sodipodi.sourceforge.net/DTD/sodipodi-0.dtd"
   xmlns:inkscape="http://www.inkscape.org/namespaces/inkscape"
   version="1.1"
   width="160px"
   height="160px"
   viewBox="0 0 160 160"
   id="svg12787"
   inkscape:version="0.48.3.1 r9886"
   sodipodi:docname="link-sprite.svg">
  <metadata
     id="metadata13273">
    <rdf:RDF>
      <cc:Work
         rdf:about="">
        <dc:format>image/svg+xml</dc:format>
        <dc:type
           rdf:resource="http://purl.org/dc/dcmitype/StillImage" />
        <dc:title></dc:title>
      </cc:Work>
    </rdf:RDF>
  </metadata>
  <defs
     id="defs13271" />
  <sodipodi:namedview
     pagecolor="#ffffff"
     bordercolor="#666666"
     borderopacity="1"
     objecttolerance="10"
     gridtolerance="10"
     guidetolerance="10"
     inkscape:pageopacity="0"
     inkscape:pageshadow="2"
     inkscape:window-width="1920"
     inkscape:window-height="1034"
     id="namedview13269"
     showgrid="false"
     inkscape:zoom="45.254834"
     inkscape:cx="198.02668"
     inkscape:cy="-71.415449"
     inkscape:window-x="0"
     inkscape:window-y="25"
     inkscape:window-maximized="1"
     inkscape:current-layer="svg12787" />
  <style
     id="style12789">.green { fill:#b9fa1a; } .brown { fill:#e45c10;} .tan { fill:#ffa044;} .transparent { fill:rgba(0, 0, 0, 0);} rect {stroke-line-join:miter;}</style>
  <style
     id="style15176">.green { fill:#b9fa1a; } .brown { fill:#e45c10;} .tan { fill:#ffa044;} .transparent { fill:rgba(0, 0, 0, 0);} rect {stroke-line-join:miter;}</style>
  <style
     id="style18964">.green { fill:#b9fa1a; } .brown { fill:#e45c10;} .tan { fill:#ffa044;} .transparent { fill:rgba(0, 0, 0, 0);} rect {stroke-line-join:miter;}</style>
  <style
     id="style21822">.green { fill:#b9fa1a; } .brown { fill:#e45c10;} .tan { fill:#ffa044;} .transparent { fill:rgba(0, 0, 0, 0);} rect {stroke-line-join:miter;}</style>
  <style
     id="style26312">.green { fill:#b9fa1a; } .brown { fill:#e45c10;} .tan { fill:#ffa044;} .transparent { fill:rgba(0, 0, 0, 0);} rect {stroke-line-join:miter;}</style>
  <style
     id="style34178">.green { fill:#b9fa1a; } .brown { fill:#e45c10;} .tan { fill:#ffa044;} .transparent { fill:#000000} rect {stroke-line-join:miter;}</style>
  <g
     id="g34731"
     transform="translate(178.23685,218.5287)">
    <rect
       id="rect34180"
       width="1"
       height="1"
       y="1"
       x="1" />
    <rect
       id="rect34182"
       width="1"
       height="1"
       y="1"
       x="2" />
    <rect
       id="rect34184"
       width="1"
       height="1"
       y="1"
       x="3" />
    <rect
       id="rect34186"
       width="1"
       height="1"
       y="1"
       x="4" />
    <rect
       id="rect34188"
       width="1"
       height="1"
       y="1"
       x="5" />
    <rect
       id="rect34190"
       width="1"
       height="1"
       style="fill:#b9fa1a"
       y="1"
       x="6" />
    <rect
       id="rect34192"
       width="1"
       height="1"
       style="fill:#b9fa1a"
       y="1"
       x="7" />
    <rect
       id="rect34194"
       width="1"
       height="1"
       style="fill:#b9fa1a"
       y="1"
       x="8" />
    <rect
       id="rect34196"
       width="1"
       height="1"
       style="fill:#b9fa1a"
       y="1"
       x="9" />
    <rect
       id="rect34198"
       width="1"
       height="1"
       style="fill:#b9fa1a"
       y="1"
       x="10" />
    <rect
       id="rect34200"
       width="1"
       height="1"
       style="fill:#b9fa1a"
       y="1"
       x="11" />
    <rect
       id="rect34202"
       width="1"
       height="1"
       y="1"
       x="12" />
    <rect
       id="rect34204"
       width="1"
       height="1"
       y="1"
       x="13" />
    <rect
       id="rect34206"
       width="1"
       height="1"
       y="1"
       x="14" />
    <rect
       id="rect34208"
       width="1"
       height="1"
       y="1"
       x="15" />
    <rect
       id="rect34210"
       width="1"
       height="1"
       y="1"
       x="16" />
    <rect
       id="rect34212"
       width="1"
       height="1"
       y="1"
       x="17" />
    <rect
       id="rect34214"
       width="1"
       height="1"
       y="2"
       x="1" />
    <rect
       id="rect34216"
       width="1"
       height="1"
       y="2"
       x="2" />
    <rect
       id="rect34218"
       width="1"
       height="1"
       y="2"
       x="3" />
    <rect
       id="rect34220"
       width="1"
       height="1"
       y="2"
       x="4" />
    <rect
       id="rect34222"
       width="1"
       height="1"
       style="fill:#b9fa1a"
       y="2"
       x="5" />
    <rect
       id="rect34224"
       width="1"
       height="1"
       style="fill:#b9fa1a"
       y="2"
       x="6" />
    <rect
       id="rect34226"
       width="1"
       height="1"
       style="fill:#b9fa1a"
       y="2"
       x="7" />
    <rect
       id="rect34228"
       width="1"
       height="1"
       style="fill:#b9fa1a"
       y="2"
       x="8" />
    <rect
       id="rect34230"
       width="1"
       height="1"
       style="fill:#b9fa1a"
       y="2"
       x="9" />
    <rect
       id="rect34232"
       width="1"
       height="1"
       style="fill:#b9fa1a"
       y="2"
       x="10" />
    <rect
       id="rect34234"
       width="1"
       height="1"
       style="fill:#b9fa1a"
       y="2"
       x="11" />
    <rect
       id="rect34236"
       width="1"
       height="1"
       style="fill:#b9fa1a"
       y="2"
       x="12" />
    <rect
       id="rect34238"
       width="1"
       height="1"
       y="2"
       x="13" />
    <rect
       id="rect34240"
       width="1"
       height="1"
       y="2"
       x="14" />
    <rect
       id="rect34242"
       width="1"
       height="1"
       y="2"
       x="15" />
    <rect
       id="rect34244"
       width="1"
       height="1"
       y="2"
       x="16" />
    <rect
       id="rect34246"
       width="1"
       height="1"
       y="2"
       x="17" />
    <rect
       id="rect34248"
       width="1"
       height="1"
       y="3"
       x="1" />
    <rect
       id="rect34250"
       width="1"
       height="1"
       y="3"
       x="2" />
    <rect
       id="rect34252"
       width="1"
       height="1"
       style="fill:#ffa044"
       y="3"
       x="3" />
    <rect
       id="rect34254"
       width="1"
       height="1"
       y="3"
       x="4" />
    <rect
       id="rect34256"
       width="1"
       height="1"
       style="fill:#b9fa1a"
       y="3"
       x="5" />
    <rect
       id="rect34258"
       width="1"
       height="1"
       style="fill:#b9fa1a"
       y="3"
       x="6" />
    <rect
       id="rect34260"
       width="1"
       height="1"
       style="fill:#b9fa1a"
       y="3"
       x="7" />
    <rect
       id="rect34262"
       width="1"
       height="1"
       style="fill:#b9fa1a"
       y="3"
       x="8" />
    <rect
       id="rect34264"
       width="1"
       height="1"
       style="fill:#b9fa1a"
       y="3"
       x="9" />
    <rect
       id="rect34266"
       width="1"
       height="1"
       style="fill:#b9fa1a"
       y="3"
       x="10" />
    <rect
       id="rect34268"
       width="1"
       height="1"
       style="fill:#b9fa1a"
       y="3"
       x="11" />
    <rect
       id="rect34270"
       width="1"
       height="1"
       style="fill:#b9fa1a"
       y="3"
       x="12" />
    <rect
       id="rect34272"
       width="1"
       height="1"
       y="3"
       x="13" />
    <rect
       id="rect34274"
       width="1"
       height="1"
       style="fill:#ffa044"
       y="3"
       x="14" />
    <rect
       id="rect34276"
       width="1"
       height="1"
       y="3"
       x="15" />
    <rect
       id="rect34278"
       width="1"
       height="1"
       y="3"
       x="16" />
    <rect
       id="rect34280"
       width="1"
       height="1"
       y="3"
       x="17" />
    <rect
       id="rect34282"
       width="1"
       height="1"
       y="4"
       x="1" />
    <rect
       id="rect34284"
       width="1"
       height="1"
       y="4"
       x="2" />
    <rect
       id="rect34286"
       width="1"
       height="1"
       style="fill:#ffa044"
       y="4"
       x="3" />
    <rect
       id="rect34288"
       width="1"
       height="1"
       style="fill:#b9fa1a"
       y="4"
       x="4" />
    <rect
       id="rect34290"
       width="1"
       height="1"
       style="fill:#b9fa1a"
       y="4"
       x="5" />
    <rect
       id="rect34292"
       width="1"
       height="1"
       style="fill:#b9fa1a"
       y="4"
       x="6" />
    <rect
       id="rect34294"
       width="1"
       height="1"
       style="fill:#b9fa1a"
       y="4"
       x="7" />
    <rect
       id="rect34296"
       width="1"
       height="1"
       style="fill:#b9fa1a"
       y="4"
       x="8" />
    <rect
       id="rect34298"
       width="1"
       height="1"
       style="fill:#b9fa1a"
       y="4"
       x="9" />
    <rect
       id="rect34300"
       width="1"
       height="1"
       style="fill:#b9fa1a"
       y="4"
       x="10" />
    <rect
       id="rect34302"
       width="1"
       height="1"
       style="fill:#b9fa1a"
       y="4"
       x="11" />
    <rect
       id="rect34304"
       width="1"
       height="1"
       style="fill:#b9fa1a"
       y="4"
       x="12" />
    <rect
       id="rect34306"
       width="1"
       height="1"
       style="fill:#b9fa1a"
       y="4"
       x="13" />
    <rect
       id="rect34308"
       width="1"
       height="1"
       style="fill:#ffa044"
       y="4"
       x="14" />
    <rect
       id="rect34310"
       width="1"
       height="1"
       y="4"
       x="15" />
    <rect
       id="rect34312"
       width="1"
       height="1"
       y="4"
       x="16" />
    <rect
       id="rect34314"
       width="1"
       height="1"
       y="4"
       x="17" />
    <rect
       id="rect34316"
       width="1"
       height="1"
       y="5"
       x="1" />
    <rect
       id="rect34318"
       width="1"
       height="1"
       y="5"
       x="2" />
    <rect
       id="rect34320"
       width="1"
       height="1"
       style="fill:#ffa044"
       y="5"
       x="3" />
    <rect
       id="rect34322"
       width="1"
       height="1"
       style="fill:#e45c10"
       y="5"
       x="4" />
    <rect
       id="rect34324"
       width="1"
       height="1"
       style="fill:#b9fa1a"
       y="5"
       x="5" />
    <rect
       id="rect34326"
       width="1"
       height="1"
       style="fill:#b9fa1a"
       y="5"
       x="6" />
    <rect
       id="rect34328"
       width="1"
       height="1"
       style="fill:#b9fa1a"
       y="5"
       x="7" />
    <rect
       id="rect34330"
       width="1"
       height="1"
       style="fill:#b9fa1a"
       y="5"
       x="8" />
    <rect
       id="rect34332"
       width="1"
       height="1"
       style="fill:#b9fa1a"
       y="5"
       x="9" />
    <rect
       id="rect34334"
       width="1"
       height="1"
       style="fill:#b9fa1a"
       y="5"
       x="10" />
    <rect
       id="rect34336"
       width="1"
       height="1"
       style="fill:#b9fa1a"
       y="5"
       x="11" />
    <rect
       id="rect34338"
       width="1"
       height="1"
       style="fill:#b9fa1a"
       y="5"
       x="12" />
    <rect
       id="rect34340"
       width="1"
       height="1"
       style="fill:#e45c10"
       y="5"
       x="13" />
    <rect
       id="rect34342"
       width="1"
       height="1"
       style="fill:#ffa044"
       y="5"
       x="14" />
    <rect
       id="rect34344"
       width="1"
       height="1"
       y="5"
       x="15" />
    <rect
       id="rect34346"
       width="1"
       height="1"
       y="5"
       x="16" />
    <rect
       id="rect34348"
       width="1"
       height="1"
       y="5"
       x="17" />
    <rect
       id="rect34350"
       width="1"
       height="1"
       y="6"
       x="1" />
    <rect
       id="rect34352"
       width="1"
       height="1"
       y="6"
       x="2" />
    <rect
       id="rect34354"
       width="1"
       height="1"
       style="fill:#ffa044"
       y="6"
       x="3" />
    <rect
       id="rect34356"
       width="1"
       height="1"
       style="fill:#ffa044"
       y="6"
       x="4" />
    <rect
       id="rect34358"
       width="1"
       height="1"
       style="fill:#e45c10"
       y="6"
       x="5" />
    <rect
       id="rect34360"
       width="1"
       height="1"
       style="fill:#e45c10"
       y="6"
       x="6" />
    <rect
       id="rect34362"
       width="1"
       height="1"
       style="fill:#b9fa1a"
       y="6"
       x="7" />
    <rect
       id="rect34364"
       width="1"
       height="1"
       style="fill:#b9fa1a"
       y="6"
       x="8" />
    <rect
       id="rect34366"
       width="1"
       height="1"
       style="fill:#b9fa1a"
       y="6"
       x="9" />
    <rect
       id="rect34368"
       width="1"
       height="1"
       style="fill:#b9fa1a"
       y="6"
       x="10" />
    <rect
       id="rect34370"
       width="1"
       height="1"
       style="fill:#e45c10"
       y="6"
       x="11" />
    <rect
       id="rect34372"
       width="1"
       height="1"
       style="fill:#e45c10"
       y="6"
       x="12" />
    <rect
       id="rect34374"
       width="1"
       height="1"
       style="fill:#ffa044"
       y="6"
       x="13" />
    <rect
       id="rect34376"
       width="1"
       height="1"
       style="fill:#ffa044"
       y="6"
       x="14" />
    <rect
       id="rect34378"
       width="1"
       height="1"
       y="6"
       x="15" />
    <rect
       id="rect34380"
       width="1"
       height="1"
       y="6"
       x="16" />
    <rect
       id="rect34382"
       width="1"
       height="1"
       y="6"
       x="17" />
    <rect
       id="rect34384"
       width="1"
       height="1"
       y="7"
       x="1" />
    <rect
       id="rect34386"
       width="1"
       height="1"
       y="7"
       x="2" />
    <rect
       id="rect34388"
       width="1"
       height="1"
       y="7"
       x="3" />
    <rect
       id="rect34390"
       width="1"
       height="1"
       style="fill:#ffa044"
       y="7"
       x="4" />
    <rect
       id="rect34392"
       width="1"
       height="1"
       style="fill:#e45c10"
       y="7"
       x="5" />
    <rect
       id="rect34394"
       width="1"
       height="1"
       style="fill:#e45c10"
       y="7"
       x="6" />
    <rect
       id="rect34396"
       width="1"
       height="1"
       style="fill:#e45c10"
       y="7"
       x="7" />
    <rect
       id="rect34398"
       width="1"
       height="1"
       style="fill:#b9fa1a"
       y="7"
       x="8" />
    <rect
       id="rect34400"
       width="1"
       height="1"
       style="fill:#b9fa1a"
       y="7"
       x="9" />
    <rect
       id="rect34402"
       width="1"
       height="1"
       style="fill:#e45c10"
       y="7"
       x="10" />
    <rect
       id="rect34404"
       width="1"
       height="1"
       style="fill:#e45c10"
       y="7"
       x="11" />
    <rect
       id="rect34406"
       width="1"
       height="1"
       style="fill:#e45c10"
       y="7"
       x="12" />
    <rect
       id="rect34408"
       width="1"
       height="1"
       style="fill:#ffa044"
       y="7"
       x="13" />
    <rect
       id="rect34410"
       width="1"
       height="1"
       y="7"
       x="14" />
    <rect
       id="rect34412"
       width="1"
       height="1"
       y="7"
       x="15" />
    <rect
       id="rect34414"
       width="1"
       height="1"
       y="7"
       x="16" />
    <rect
       id="rect34416"
       width="1"
       height="1"
       y="7"
       x="17" />
    <rect
       id="rect34418"
       width="1"
       height="1"
       y="8"
       x="1" />
    <rect
       id="rect34420"
       width="1"
       height="1"
       y="8"
       x="2" />
    <rect
       id="rect34422"
       width="1"
       height="1"
       y="8"
       x="3" />
    <rect
       id="rect34424"
       width="1"
       height="1"
       style="fill:#e45c10"
       y="8"
       x="4" />
    <rect
       id="rect34426"
       width="1"
       height="1"
       style="fill:#b9fa1a"
       y="8"
       x="5" />
    <rect
       id="rect34428"
       width="1"
       height="1"
       style="fill:#e45c10"
       y="8"
       x="6" />
    <rect
       id="rect34430"
       width="1"
       height="1"
       style="fill:#e45c10"
       y="8"
       x="7" />
    <rect
       id="rect34432"
       width="1"
       height="1"
       style="fill:#e45c10"
       y="8"
       x="8" />
    <rect
       id="rect34434"
       width="1"
       height="1"
       style="fill:#e45c10"
       y="8"
       x="9" />
    <rect
       id="rect34436"
       width="1"
       height="1"
       style="fill:#e45c10"
       y="8"
       x="10" />
    <rect
       id="rect34438"
       width="1"
       height="1"
       style="fill:#e45c10"
       y="8"
       x="11" />
    <rect
       id="rect34440"
       width="1"
       height="1"
       style="fill:#b9fa1a"
       y="8"
       x="12" />
    <rect
       id="rect34442"
       width="1"
       height="1"
       style="fill:#e45c10"
       y="8"
       x="13" />
    <rect
       id="rect34444"
       width="1"
       height="1"
       y="8"
       x="14" />
    <rect
       id="rect34446"
       width="1"
       height="1"
       y="8"
       x="15" />
    <rect
       id="rect34448"
       width="1"
       height="1"
       y="8"
       x="16" />
    <rect
       id="rect34450"
       width="1"
       height="1"
       y="8"
       x="17" />
    <rect
       id="rect34452"
       width="1"
       height="1"
       y="9"
       x="1" />
    <rect
       id="rect34454"
       width="1"
       height="1"
       y="9"
       x="2" />
    <rect
       id="rect34456"
       width="1"
       height="1"
       style="fill:#e45c10"
       y="9"
       x="3" />
    <rect
       id="rect34458"
       width="1"
       height="1"
       style="fill:#e45c10"
       y="9"
       x="4" />
    <rect
       id="rect34460"
       width="1"
       height="1"
       style="fill:#b9fa1a"
       y="9"
       x="5" />
    <rect
       id="rect34462"
       width="1"
       height="1"
       style="fill:#b9fa1a"
       y="9"
       x="6" />
    <rect
       id="rect34464"
       width="1"
       height="1"
       style="fill:#b9fa1a"
       y="9"
       x="7" />
    <rect
       id="rect34466"
       width="1"
       height="1"
       style="fill:#b9fa1a"
       y="9"
       x="8" />
    <rect
       id="rect34468"
       width="1"
       height="1"
       style="fill:#b9fa1a"
       y="9"
       x="9" />
    <rect
       id="rect34470"
       width="1"
       height="1"
       style="fill:#b9fa1a"
       y="9"
       x="10" />
    <rect
       id="rect34472"
       width="1"
       height="1"
       style="fill:#b9fa1a"
       y="9"
       x="11" />
    <rect
       id="rect34474"
       width="1"
       height="1"
       style="fill:#e45c10"
       y="9"
       x="12" />
    <rect
       id="rect34476"
       width="1"
       height="1"
       style="fill:#e45c10"
       y="9"
       x="13" />
    <rect
       id="rect34478"
       width="1"
       height="1"
       y="9"
       x="14" />
    <rect
       id="rect34480"
       width="1"
       height="1"
       y="9"
       x="15" />
    <rect
       id="rect34482"
       width="1"
       height="1"
       y="9"
       x="16" />
    <rect
       id="rect34484"
       width="1"
       height="1"
       y="9"
       x="17" />
    <rect
       id="rect34486"
       width="1"
       height="1"
       y="10"
       x="1" />
    <rect
       id="rect34488"
       width="1"
       height="1"
       y="10"
       x="2" />
    <rect
       id="rect34490"
       width="1"
       height="1"
       style="fill:#e45c10"
       y="10"
       x="3" />
    <rect
       id="rect34492"
       width="1"
       height="1"
       style="fill:#e45c10"
       y="10"
       x="4" />
    <rect
       id="rect34494"
       width="1"
       height="1"
       style="fill:#b9fa1a"
       y="10"
       x="5" />
    <rect
       id="rect34496"
       width="1"
       height="1"
       style="fill:#b9fa1a"
       y="10"
       x="6" />
    <rect
       id="rect34498"
       width="1"
       height="1"
       style="fill:#b9fa1a"
       y="10"
       x="7" />
    <rect
       id="rect34500"
       width="1"
       height="1"
       style="fill:#b9fa1a"
       y="10"
       x="8" />
    <rect
       id="rect34502"
       width="1"
       height="1"
       style="fill:#b9fa1a"
       y="10"
       x="9" />
    <rect
       id="rect34504"
       width="1"
       height="1"
       style="fill:#b9fa1a"
       y="10"
       x="10" />
    <rect
       id="rect34506"
       width="1"
       height="1"
       style="fill:#b9fa1a"
       y="10"
       x="11" />
    <rect
       id="rect34508"
       width="1"
       height="1"
       style="fill:#e45c10"
       y="10"
       x="12" />
    <rect
       id="rect34510"
       width="1"
       height="1"
       style="fill:#e45c10"
       y="10"
       x="13" />
    <rect
       id="rect34512"
       width="1"
       height="1"
       style="fill:#ffa044"
       y="10"
       x="14" />
    <rect
       id="rect34514"
       width="1"
       height="1"
       y="10"
       x="15" />
    <rect
       id="rect34516"
       width="1"
       height="1"
       y="10"
       x="16" />
    <rect
       id="rect34518"
       width="1"
       height="1"
       y="10"
       x="17" />
    <rect
       id="rect34520"
       width="1"
       height="1"
       y="11"
       x="1" />
    <rect
       id="rect34522"
       width="1"
       height="1"
       y="11"
       x="2" />
    <rect
       id="rect34524"
       width="1"
       height="1"
       y="11"
       x="3" />
    <rect
       id="rect34526"
       width="1"
       height="1"
       style="fill:#e45c10"
       y="11"
       x="4" />
    <rect
       id="rect34528"
       width="1"
       height="1"
       style="fill:#e45c10"
       y="11"
       x="5" />
    <rect
       id="rect34530"
       width="1"
       height="1"
       style="fill:#b9fa1a"
       y="11"
       x="6" />
    <rect
       id="rect34532"
       width="1"
       height="1"
       style="fill:#b9fa1a"
       y="11"
       x="7" />
    <rect
       id="rect34534"
       width="1"
       height="1"
       style="fill:#b9fa1a"
       y="11"
       x="8" />
    <rect
       id="rect34536"
       width="1"
       height="1"
       style="fill:#b9fa1a"
       y="11"
       x="9" />
    <rect
       id="rect34538"
       width="1"
       height="1"
       style="fill:#b9fa1a"
       y="11"
       x="10" />
    <rect
       id="rect34540"
       width="1"
       height="1"
       style="fill:#b9fa1a"
       y="11"
       x="11" />
    <rect
       id="rect34542"
       width="1"
       height="1"
       style="fill:#e45c10"
       y="11"
       x="12" />
    <rect
       id="rect34544"
       width="1"
       height="1"
       style="fill:#e45c10"
       y="11"
       x="13" />
    <rect
       id="rect34546"
       width="1"
       height="1"
       style="fill:#ffa044"
       y="11"
       x="14" />
    <rect
       id="rect34548"
       width="1"
       height="1"
       y="11"
       x="15" />
    <rect
       id="rect34550"
       width="1"
       height="1"
       y="11"
       x="16" />
    <rect
       id="rect34552"
       width="1"
       height="1"
       y="11"
       x="17" />
    <rect
       id="rect34554"
       width="1"
       height="1"
       y="12"
       x="1" />
    <rect
       id="rect34556"
       width="1"
       height="1"
       y="12"
       x="2" />
    <rect
       id="rect34558"
       width="1"
       height="1"
       y="12"
       x="3" />
    <rect
       id="rect34560"
       width="1"
       height="1"
       style="fill:#b9fa1a"
       y="12"
       x="4" />
    <rect
       id="rect34562"
       width="1"
       height="1"
       style="fill:#b9fa1a"
       y="12"
       x="5" />
    <rect
       id="rect34564"
       width="1"
       height="1"
       style="fill:#e45c10"
       y="12"
       x="6" />
    <rect
       id="rect34566"
       width="1"
       height="1"
       style="fill:#e45c10"
       y="12"
       x="7" />
    <rect
       id="rect34568"
       width="1"
       height="1"
       style="fill:#e45c10"
       y="12"
       x="8" />
    <rect
       id="rect34570"
       width="1"
       height="1"
       style="fill:#e45c10"
       y="12"
       x="9" />
    <rect
       id="rect34572"
       width="1"
       height="1"
       style="fill:#e45c10"
       y="12"
       x="10" />
    <rect
       id="rect34574"
       width="1"
       height="1"
       style="fill:#e45c10"
       y="12"
       x="11" />
    <rect
       id="rect34576"
       width="1"
       height="1"
       style="fill:#b9fa1a"
       y="12"
       x="12" />
    <rect
       id="rect34578"
       width="1"
       height="1"
       style="fill:#ffa044"
       y="12"
       x="13" />
    <rect
       id="rect34580"
       width="1"
       height="1"
       style="fill:#ffa044"
       y="12"
       x="14" />
    <rect
       id="rect34582"
       width="1"
       height="1"
       y="12"
       x="15" />
    <rect
       id="rect34584"
       width="1"
       height="1"
       y="12"
       x="16" />
    <rect
       id="rect34586"
       width="1"
       height="1"
       y="12"
       x="17" />
    <rect
       id="rect34588"
       width="1"
       height="1"
       y="13"
       x="1" />
    <rect
       id="rect34590"
       width="1"
       height="1"
       y="13"
       x="2" />
    <rect
       id="rect34592"
       width="1"
       height="1"
       y="13"
       x="3" />
    <rect
       id="rect34594"
       width="1"
       height="1"
       style="fill:#b9fa1a"
       y="13"
       x="4" />
    <rect
       id="rect34596"
       width="1"
       height="1"
       style="fill:#b9fa1a"
       y="13"
       x="5" />
    <rect
       id="rect34598"
       width="1"
       height="1"
       style="fill:#b9fa1a"
       y="13"
       x="6" />
    <rect
       id="rect34600"
       width="1"
       height="1"
       style="fill:#b9fa1a"
       y="13"
       x="7" />
    <rect
       id="rect34602"
       width="1"
       height="1"
       style="fill:#b9fa1a"
       y="13"
       x="8" />
    <rect
       id="rect34604"
       width="1"
       height="1"
       style="fill:#b9fa1a"
       y="13"
       x="9" />
    <rect
       id="rect34606"
       width="1"
       height="1"
       style="fill:#b9fa1a"
       y="13"
       x="10" />
    <rect
       id="rect34608"
       width="1"
       height="1"
       style="fill:#b9fa1a"
       y="13"
       x="11" />
    <rect
       id="rect34610"
       width="1"
       height="1"
       style="fill:#b9fa1a"
       y="13"
       x="12" />
    <rect
       id="rect34612"
       width="1"
       height="1"
       style="fill:#b9fa1a"
       y="13"
       x="13" />
    <rect
       id="rect34614"
       width="1"
       height="1"
       y="13"
       x="14" />
    <rect
       id="rect34616"
       width="1"
       height="1"
       y="13"
       x="15" />
    <rect
       id="rect34618"
       width="1"
       height="1"
       y="13"
       x="16" />
    <rect
       id="rect34620"
       width="1"
       height="1"
       y="13"
       x="17" />
    <rect
       id="rect34622"
       width="1"
       height="1"
       y="14"
       x="1" />
    <rect
       id="rect34624"
       width="1"
       height="1"
       y="14"
       x="2" />
    <rect
       id="rect34626"
       width="1"
       height="1"
       y="14"
       x="3" />
    <rect
       id="rect34628"
       width="1"
       height="1"
       style="fill:#e45c10"
       y="14"
       x="4" />
    <rect
       id="rect34630"
       width="1"
       height="1"
       style="fill:#e45c10"
       y="14"
       x="5" />
    <rect
       id="rect34632"
       width="1"
       height="1"
       style="fill:#e45c10"
       y="14"
       x="6" />
    <rect
       id="rect34634"
       width="1"
       height="1"
       style="fill:#b9fa1a"
       y="14"
       x="7" />
    <rect
       id="rect34636"
       width="1"
       height="1"
       style="fill:#b9fa1a"
       y="14"
       x="8" />
    <rect
       id="rect34638"
       width="1"
       height="1"
       style="fill:#b9fa1a"
       y="14"
       x="9" />
    <rect
       id="rect34640"
       width="1"
       height="1"
       style="fill:#b9fa1a"
       y="14"
       x="10" />
    <rect
       id="rect34642"
       width="1"
       height="1"
       style="fill:#b9fa1a"
       y="14"
       x="11" />
    <rect
       id="rect34644"
       width="1"
       height="1"
       style="fill:#e45c10"
       y="14"
       x="12" />
    <rect
       id="rect34646"
       width="1"
       height="1"
       y="14"
       x="13" />
    <rect
       id="rect34648"
       width="1"
       height="1"
       y="14"
       x="14" />
    <rect
       id="rect34650"
       width="1"
       height="1"
       y="14"
       x="15" />
    <rect
       id="rect34652"
       width="1"
       height="1"
       y="14"
       x="16" />
    <rect
       id="rect34654"
       width="1"
       height="1"
       y="14"
       x="17" />
    <rect
       id="rect34656"
       width="1"
       height="1"
       y="15"
       x="1" />
    <rect
       id="rect34658"
       width="1"
       height="1"
       y="15"
       x="2" />
    <rect
       id="rect34660"
       width="1"
       height="1"
       y="15"
       x="3" />
    <rect
       id="rect34662"
       width="1"
       height="1"
       style="fill:#e45c10"
       y="15"
       x="4" />
    <rect
       id="rect34664"
       width="1"
       height="1"
       style="fill:#e45c10"
       y="15"
       x="5" />
    <rect
       id="rect34666"
       width="1"
       height="1"
       style="fill:#e45c10"
       y="15"
       x="6" />
    <rect
       id="rect34668"
       width="1"
       height="1"
       style="fill:#e45c10"
       y="15"
       x="7" />
    <rect
       id="rect34670"
       width="1"
       height="1"
       y="15"
       x="8" />
    <rect
       id="rect34672"
       width="1"
       height="1"
       y="15"
       x="9" />
    <rect
       id="rect34674"
       width="1"
       height="1"
       y="15"
       x="10" />
    <rect
       id="rect34676"
       width="1"
       height="1"
       style="fill:#e45c10"
       y="15"
       x="11" />
    <rect
       id="rect34678"
       width="1"
       height="1"
       style="fill:#e45c10"
       y="15"
       x="12" />
    <rect
       id="rect34680"
       width="1"
       height="1"
       y="15"
       x="13" />
    <rect
       id="rect34682"
       width="1"
       height="1"
       y="15"
       x="14" />
    <rect
       id="rect34684"
       width="1"
       height="1"
       y="15"
       x="15" />
    <rect
       id="rect34686"
       width="1"
       height="1"
       y="15"
       x="16" />
    <rect
       id="rect34688"
       width="1"
       height="1"
       y="15"
       x="17" />
    <rect
       id="rect34690"
       width="1"
       height="1"
       y="16"
       x="1" />
    <rect
       id="rect34692"
       width="1"
       height="1"
       y="16"
       x="2" />
    <rect
       id="rect34694"
       width="1"
       height="1"
       y="16"
       x="3" />
    <rect
       id="rect34696"
       width="1"
       height="1"
       y="16"
       x="4" />
    <rect
       id="rect34698"
       width="1"
       height="1"
       style="fill:#e45c10"
       y="16"
       x="5" />
    <rect
       id="rect34700"
       width="1"
       height="1"
       style="fill:#e45c10"
       y="16"
       x="6" />
    <rect
       id="rect34702"
       width="1"
       height="1"
       y="16"
       x="7" />
    <rect
       id="rect34704"
       width="1"
       height="1"
       y="16"
       x="8" />
    <rect
       id="rect34706"
       width="1"
       height="1"
       y="16"
       x="9" />
    <rect
       id="rect34708"
       width="1"
       height="1"
       y="16"
       x="10" />
    <rect
       id="rect34710"
       width="1"
       height="1"
       y="16"
       x="11" />
    <rect
       id="rect34712"
       width="1"
       height="1"
       y="16"
       x="12" />
    <rect
       id="rect34714"
       width="1"
       height="1"
       y="16"
       x="13" />
    <rect
       id="rect34716"
       width="1"
       height="1"
       y="16"
       x="14" />
    <rect
       id="rect34718"
       width="1"
       height="1"
       y="16"
       x="15" />
    <rect
       id="rect34720"
       width="1"
       height="1"
       y="16"
       x="16" />
    <rect
       id="rect34722"
       width="1"
       height="1"
       y="16"
       x="17" />
  </g>
  <rect
     style="fill:none;stroke:none"
     id="rect35005"
     width="0.044194173"
     height="0.26516503"
     x="199.80186"
     y="232.21329" />
</svg>
